# xmcd CD database file
#
# Track frame offsets:
#	150
#	12373
#	32043
#	48206
#	61720
#	89611
#	116813
#	142983
#	161531
#	187770
#
# Disc length: 2704 seconds
#
# Revision: 0
# Processed by: cddbd v1.5.1PL2 Copyright (c) Steve Scherf et al.
# Submitted via: CDex 1.51
#
DISCID=780a8e0a
DTITLE=Billy Goodman - Dark Horses
DYEAR=2005
DGENRE=Blues
TTITLE0=Dark Horses
TTITLE1=Love Is The Test
TTITLE2=Over And Over Again
TTITLE3=How Long Was I Sleeping
TTITLE4=Hellride
TTITLE5=Ship At Sea
TTITLE6=Good Shepherd
TTITLE7=Kind Hearted Woman
TTITLE8=Willin'
TTITLE9=Dark Was The Night
EXTD=YEAR: 2005
EXTT0=
EXTT1=
EXTT2=
EXTT3=
EXTT4=
EXTT5=
EXTT6=
EXTT7=
EXTT8=
EXTT9=
PLAYORDER=
